<svg width="24" height="24" viewBox="0 0 24 24" fill="none" xmlns="http://www.w3.org/2000/svg">
<g clip-path="url(#clip0_302_4384)">
<path d="M20.78 12.5306L14.0303 19.2802C13.8895 19.4209 13.6987 19.5 13.4997 19.5C13.3006 19.5 13.1098 19.4209 12.969 19.2802C12.8283 19.1395 12.7493 18.9486 12.7493 18.7496C12.7493 18.5506 12.8283 18.3598 12.969 18.219L18.4392 12.75H3.74998C3.55107 12.75 3.36031 12.6709 3.21966 12.5303C3.07902 12.3897 3 12.1989 3 12C3 11.8011 3.07902 11.6103 3.21966 11.4697C3.36031 11.3291 3.55107 11.25 3.74998 11.25H18.4392L12.969 5.78097C12.8283 5.64025 12.7493 5.44939 12.7493 5.25038C12.7493 5.05136 12.8283 4.8605 12.969 4.71978C13.1098 4.57906 13.3006 4.5 13.4997 4.5C13.6987 4.5 13.8895 4.57906 14.0303 4.71978L20.78 11.4694C20.8498 11.5391 20.9051 11.6218 20.9428 11.7128C20.9806 11.8039 21 11.9014 21 12C21 12.0986 20.9806 12.1961 20.9428 12.2872C20.9051 12.3782 20.8498 12.4609 20.78 12.5306Z" fill="#F2542D"/>
</g>
<defs>
<clipPath id="clip0_302_4384">
<rect width="24" height="24" fill="white"/>
</clipPath>
</defs>
</svg>
