<svg width="56" height="56" viewBox="0 0 56 56" fill="none" xmlns="http://www.w3.org/2000/svg">
<rect width="56" height="56" rx="28" fill="#F2542D"/>
<path d="M41.0078 35.3449C41.6988 33.9117 42.0378 32.3344 41.9968 30.7439C41.9557 29.1534 41.5357 27.5956 40.7718 26.2001C40.0078 24.8045 38.9218 23.6113 37.6041 22.7197C36.2864 21.8281 34.7749 21.2638 33.1953 21.0736C32.6697 19.8516 31.9056 18.7467 30.9476 17.8236C29.9897 16.9006 28.8572 16.178 27.6165 15.6981C26.3758 15.2182 25.0518 14.9906 23.7221 15.0288C22.3924 15.0669 21.0836 15.37 19.8725 15.9203C18.6613 16.4706 17.5722 17.2569 16.6687 18.2334C15.7653 19.2098 15.0658 20.3567 14.6111 21.6069C14.1565 22.8571 13.9558 24.1854 14.0209 25.5141C14.086 26.8428 14.4156 28.1451 14.9903 29.3449L14.0816 32.4336C13.9799 32.7784 13.9732 33.1442 14.0619 33.4926C14.1506 33.8409 14.3316 34.1589 14.5858 34.4131C14.84 34.6673 15.158 34.8483 15.5063 34.937C15.8547 35.0258 16.2205 35.019 16.5653 34.9174L19.6541 34.0086C20.6458 34.4851 21.7092 34.7955 22.8016 34.9274C23.3323 36.1709 24.1097 37.2938 25.0867 38.2284C26.0637 39.1629 27.2201 39.8897 28.486 40.3646C29.7518 40.8396 31.1008 41.0529 32.4515 40.9917C33.8021 40.9305 35.1263 40.5961 36.3441 40.0086L39.4328 40.9174C39.7775 41.0188 40.1432 41.0256 40.4914 40.9369C40.8396 40.8482 41.1574 40.6674 41.4116 40.4134C41.6657 40.1594 41.8467 39.8416 41.9356 39.4934C42.0244 39.1453 42.0179 38.7796 41.9166 38.4349L41.0078 35.3449ZM19.7491 31.9374C19.6535 31.9376 19.5584 31.951 19.4666 31.9774L15.9991 32.9999L17.0203 29.5299C17.0929 29.2792 17.0647 29.01 16.9416 28.7799C16.0369 27.0881 15.7704 25.1276 16.1905 23.2557C16.6106 21.3838 17.6894 19.7252 19.2302 18.5823C20.7711 17.4394 22.6713 16.8882 24.5845 17.0292C26.4978 17.1703 28.2966 17.9942 29.6532 19.3507C31.0097 20.7073 31.8336 22.5061 31.9747 24.4194C32.1157 26.3326 31.5646 28.2329 30.4216 29.7737C29.2787 31.3145 27.6201 32.3933 25.7482 32.8134C23.8763 33.2335 21.9158 32.967 20.2241 32.0624C20.0786 31.9818 19.9153 31.9389 19.7491 31.9374ZM38.9728 35.5286L39.9991 38.9999L36.5291 37.9786C36.2784 37.906 36.0092 37.9342 35.7791 38.0574C33.9376 39.0406 31.7849 39.2658 29.7798 38.6849C27.7747 38.1039 26.0759 36.7628 25.0453 34.9474C26.4145 34.8044 27.7394 34.3801 28.9369 33.701C30.1344 33.0219 31.1787 32.1026 32.0041 31.0009C32.8296 29.8991 33.4184 28.6387 33.7338 27.2987C34.0491 25.9586 34.0841 24.5678 33.8366 23.2136C35.0295 23.4948 36.142 24.0464 37.088 24.8257C38.0339 25.6051 38.7882 26.5914 39.2925 27.7085C39.7969 28.8256 40.0378 30.0437 39.9966 31.2687C39.9555 32.4937 39.6334 33.6928 39.0553 34.7736C38.9308 35.0051 38.9026 35.2764 38.9766 35.5286H38.9728Z" fill="white"/>
</svg>
