<svg width="20" height="20" viewBox="0 0 20 20" fill="none" xmlns="http://www.w3.org/2000/svg">
<path d="M1.66602 9.99984H18.3327M1.66602 9.99984C1.66602 14.6022 5.39698 18.3332 9.99935 18.3332M1.66602 9.99984C1.66602 5.39746 5.39698 1.6665 9.99935 1.6665M18.3327 9.99984C18.3327 14.6022 14.6017 18.3332 9.99935 18.3332M18.3327 9.99984C18.3327 5.39746 14.6017 1.6665 9.99935 1.6665M9.99935 1.6665C12.0837 3.94846 13.2683 6.90987 13.3327 9.99984C13.2683 13.0898 12.0837 16.0512 9.99935 18.3332M9.99935 1.6665C7.91495 3.94846 6.73039 6.90987 6.66602 9.99984C6.73039 13.0898 7.91495 16.0512 9.99935 18.3332" stroke="#562C2C" stroke-linecap="round" stroke-linejoin="round"/>
</svg>
