<svg width="32" height="32" viewBox="0 0 32 32" fill="none" xmlns="http://www.w3.org/2000/svg">
<path d="M8.23438 11C8.23438 10.7638 8.32821 10.5373 8.49523 10.3702C8.66226 10.2032 8.88879 10.1094 9.125 10.1094H22.875C23.1112 10.1094 23.3377 10.2032 23.5048 10.3702C23.6718 10.5373 23.7656 10.7638 23.7656 11C23.7656 11.2362 23.6718 11.4627 23.5048 11.6298C23.3377 11.7968 23.1112 11.8906 22.875 11.8906H9.125C8.88879 11.8906 8.66226 11.7968 8.49523 11.6298C8.32821 11.4627 8.23438 11.2362 8.23438 11ZM12.875 13.2344H22.875C23.1112 13.2344 23.3377 13.3282 23.5048 13.4952C23.6718 13.6623 23.7656 13.8888 23.7656 14.125C23.7656 14.3612 23.6718 14.5877 23.5048 14.7548C23.3377 14.9218 23.1112 15.0156 22.875 15.0156H12.875C12.6388 15.0156 12.4123 14.9218 12.2452 14.7548C12.0782 14.5877 11.9844 14.3612 11.9844 14.125C11.9844 13.8888 12.0782 13.6623 12.2452 13.4952C12.4123 13.3282 12.6388 13.2344 12.875 13.2344ZM9.125 16.3594H22.875C23.1112 16.3594 23.3377 16.4532 23.5048 16.6202C23.6718 16.7873 23.7656 17.0138 23.7656 17.25C23.7656 17.4862 23.6718 17.7127 23.5048 17.8798C23.3377 18.0468 23.1112 18.1406 22.875 18.1406H9.125C8.88879 18.1406 8.66226 18.0468 8.49523 17.8798C8.32821 17.7127 8.23438 17.4862 8.23438 17.25C8.23438 17.0138 8.32821 16.7873 8.49523 16.6202C8.66226 16.4532 8.88879 16.3594 9.125 16.3594ZM12.875 19.4844H22.875C23.1112 19.4844 23.3377 19.5782 23.5048 19.7452C23.6718 19.9123 23.7656 20.1388 23.7656 20.375C23.7656 20.6112 23.6718 20.8377 23.5048 21.0048C23.3377 21.1718 23.1112 21.2656 22.875 21.2656H12.875C12.6388 21.2656 12.4123 21.1718 12.2452 21.0048C12.0782 20.8377 11.9844 20.6112 11.9844 20.375C11.9844 20.1388 12.0782 19.9123 12.2452 19.7452C12.4123 19.5782 12.6388 19.4844 12.875 19.4844Z" fill="#0E9594" stroke="#0E9594" stroke-width="0.09375"/>
</svg>
