<svg width="32" height="32" viewBox="0 0 32 32" fill="none" xmlns="http://www.w3.org/2000/svg">
<path d="M8.23438 11C8.23438 10.7638 8.32821 10.5373 8.49523 10.3702C8.66226 10.2032 8.88879 10.1094 9.125 10.1094H22.875C23.1112 10.1094 23.3377 10.2032 23.5048 10.3702C23.6718 10.5373 23.7656 10.7638 23.7656 11C23.7656 11.2362 23.6718 11.4627 23.5048 11.6298C23.3377 11.7968 23.1112 11.8906 22.875 11.8906H9.125C8.88879 11.8906 8.66226 11.7968 8.49523 11.6298C8.32821 11.4627 8.23438 11.2362 8.23438 11ZM10.3702 13.4952C10.5373 13.3282 10.7638 13.2344 11 13.2344H21C21.2362 13.2344 21.4627 13.3282 21.6298 13.4952C21.7968 13.6623 21.8906 13.8888 21.8906 14.125C21.8906 14.3612 21.7968 14.5877 21.6298 14.7548C21.4627 14.9218 21.2362 15.0156 21 15.0156H11C10.7638 15.0156 10.5373 14.9218 10.3702 14.7548C10.2032 14.5877 10.1094 14.3612 10.1094 14.125C10.1094 13.8888 10.2032 13.6623 10.3702 13.4952ZM9.125 16.3594H22.875C23.1112 16.3594 23.3377 16.4532 23.5048 16.6202C23.6718 16.7873 23.7656 17.0138 23.7656 17.25C23.7656 17.4862 23.6718 17.7127 23.5048 17.8798C23.3377 18.0468 23.1112 18.1406 22.875 18.1406H9.125C8.88879 18.1406 8.66226 18.0468 8.49523 17.8798C8.32821 17.7127 8.23438 17.4862 8.23438 17.25C8.23438 17.0138 8.32821 16.7873 8.49523 16.6202C8.66226 16.4532 8.88879 16.3594 9.125 16.3594ZM11 19.4844H21C21.2362 19.4844 21.4627 19.5782 21.6298 19.7452C21.7968 19.9123 21.8906 20.1388 21.8906 20.375C21.8906 20.6112 21.7968 20.8377 21.6298 21.0048C21.4627 21.1718 21.2362 21.2656 21 21.2656H11C10.7638 21.2656 10.5373 21.1718 10.3702 21.0048C10.2032 20.8377 10.1094 20.6112 10.1094 20.375C10.1094 20.1388 10.2032 19.9123 10.3702 19.7452C10.5373 19.5782 10.7638 19.4844 11 19.4844Z" fill="#0E9594" stroke="#0E9594" stroke-width="0.09375"/>
</svg>
