<svg width="32" height="32" viewBox="0 0 32 32" fill="none" xmlns="http://www.w3.org/2000/svg">
<path d="M20.4231 14.9124L20.3874 14.956L20.4367 14.9832C21.2168 15.4132 21.8317 16.0902 22.1848 16.9079C22.5379 17.7255 22.6092 18.6374 22.3874 19.5C22.1656 20.3626 21.6633 21.127 20.9596 21.6729C20.2559 22.2188 19.3906 22.5152 18.5 22.5156C18.5 22.5156 18.5 22.5156 18.5 22.5156H12.25C12.0138 22.5156 11.7873 22.4218 11.6202 22.2548C11.4532 22.0877 11.3594 21.8612 11.3594 21.625V9.75C11.3594 9.51379 11.4532 9.28726 11.6202 9.12023C11.7873 8.95321 12.0138 8.85938 12.25 8.85938L17.5625 8.85937C17.5625 8.85937 17.5625 8.85938 17.5625 8.85938C18.2639 8.85963 18.9509 9.05909 19.5434 9.43455C20.1358 9.81001 20.6095 10.346 20.9092 10.9802C21.2089 11.6144 21.3224 12.3207 21.2363 13.0168C21.1503 13.7129 20.8683 14.3703 20.4231 14.9124ZM13.1875 10.6406H13.1406V10.6875V14.4375V14.4844H13.1875H17.5625C18.0722 14.4844 18.561 14.2819 18.9215 13.9215C19.2819 13.561 19.4844 13.0722 19.4844 12.5625C19.4844 12.0528 19.2819 11.564 18.9215 11.2035C18.561 10.8431 18.0722 10.6406 17.5625 10.6406H13.1875ZM13.1406 20.6875V20.7344H13.1875H18.5C19.0926 20.7344 19.6609 20.499 20.0799 20.0799C20.499 19.6609 20.7344 19.0926 20.7344 18.5C20.7344 17.9074 20.499 17.3391 20.0799 16.9201C19.6609 16.501 19.0926 16.2656 18.5 16.2656H13.1875H13.1406V16.3125V20.6875Z" fill="#0E9594" stroke="#0E9594" stroke-width="0.09375"/>
</svg>
