<svg width="32" height="32" viewBox="0 0 32 32" fill="none" xmlns="http://www.w3.org/2000/svg">
<path d="M11.9844 11C11.9844 10.7638 12.0782 10.5373 12.2452 10.3702C12.4123 10.2032 12.6388 10.1094 12.875 10.1094H22.875C23.1112 10.1094 23.3377 10.2032 23.5048 10.3702C23.6718 10.5373 23.7656 10.7638 23.7656 11C23.7656 11.2362 23.6718 11.4627 23.5048 11.6298C23.3377 11.7968 23.1112 11.8906 22.875 11.8906H12.875C12.6388 11.8906 12.4123 11.7968 12.2452 11.6298C12.0782 11.4627 11.9844 11.2362 11.9844 11ZM12.875 15.1094H22.875C23.1112 15.1094 23.3377 15.2032 23.5048 15.3702C23.6718 15.5373 23.7656 15.7638 23.7656 16C23.7656 16.2362 23.6718 16.4627 23.5048 16.6298C23.3377 16.7968 23.1112 16.8906 22.875 16.8906H12.875C12.6388 16.8906 12.4123 16.7968 12.2452 16.6298C12.0782 16.4627 11.9844 16.2362 11.9844 16C11.9844 15.7638 12.0782 15.5373 12.2452 15.3702C12.4123 15.2032 12.6388 15.1094 12.875 15.1094ZM12.875 20.1094H22.875C23.1112 20.1094 23.3377 20.2032 23.5048 20.3702C23.6718 20.5373 23.7656 20.7638 23.7656 21C23.7656 21.2362 23.6718 21.4627 23.5048 21.6298C23.3377 21.7968 23.1112 21.8906 22.875 21.8906H12.875C12.6388 21.8906 12.4123 21.7968 12.2452 21.6298C12.0782 21.4627 11.9844 21.2362 11.9844 21C11.9844 20.7638 12.0782 20.5373 12.2452 20.3702C12.4123 20.2032 12.6388 20.1094 12.875 20.1094ZM8.76908 14.9996C8.96693 14.8674 9.19955 14.7969 9.4375 14.7969C9.75659 14.7969 10.0626 14.9236 10.2882 15.1493C10.5139 15.3749 10.6406 15.6809 10.6406 16C10.6406 16.238 10.5701 16.4706 10.4379 16.6684C10.3057 16.8663 10.1178 17.0205 9.89792 17.1115C9.67807 17.2026 9.43617 17.2264 9.20278 17.18C8.9694 17.1336 8.75502 17.019 8.58676 16.8507C8.4185 16.6825 8.30392 16.4681 8.25749 16.2347C8.21107 16.0013 8.2349 15.7594 8.32596 15.5396C8.41702 15.3197 8.57123 15.1318 8.76908 14.9996ZM8.76908 9.99964C8.96693 9.86744 9.19955 9.79688 9.4375 9.79688C9.75659 9.79688 10.0626 9.92363 10.2882 10.1493C10.5139 10.3749 10.6406 10.6809 10.6406 11C10.6406 11.238 10.5701 11.4706 10.4379 11.6684C10.3057 11.8663 10.1178 12.0205 9.89792 12.1115C9.67807 12.2026 9.43617 12.2264 9.20278 12.18C8.9694 12.1336 8.75502 12.019 8.58676 11.8507C8.4185 11.6825 8.30392 11.4681 8.25749 11.2347C8.21107 11.0013 8.2349 10.7594 8.32596 10.5396C8.41702 10.3197 8.57123 10.1318 8.76908 9.99964ZM8.76908 19.9996C8.96693 19.8674 9.19954 19.7969 9.4375 19.7969C9.75659 19.7969 10.0626 19.9236 10.2882 20.1493C10.5139 20.3749 10.6406 20.6809 10.6406 21C10.6406 21.238 10.5701 21.4706 10.4379 21.6684C10.3057 21.8663 10.1178 22.0205 9.89792 22.1115C9.67807 22.2026 9.43617 22.2264 9.20278 22.18C8.9694 22.1336 8.75502 22.019 8.58676 21.8507C8.4185 21.6825 8.30392 21.4681 8.25749 21.2347C8.21107 21.0013 8.2349 20.7594 8.32596 20.5396C8.41702 20.3197 8.57123 20.1318 8.76908 19.9996Z" fill="#0E9594" stroke="#0E9594" stroke-width="0.09375"/>
</svg>
