<svg width="36" height="22" viewBox="0 0 36 22" fill="none" xmlns="http://www.w3.org/2000/svg">
<g clip-path="url(#clip0_695_5143)">
<path d="M0.192 7.816V5.704H4.256V17H1.888V7.816H0.192ZM6.25725 8.28C6.25725 7.736 6.40658 7.22933 6.70525 6.76C7.01458 6.29067 7.46792 5.912 8.06525 5.624C8.67325 5.336 9.40392 5.192 10.2573 5.192C11.1106 5.192 11.8359 5.336 12.4333 5.624C13.0413 5.912 13.4946 6.29067 13.7933 6.76C14.1026 7.22933 14.2573 7.736 14.2573 8.28C14.2573 8.89867 14.1079 9.42667 13.8093 9.864C13.5106 10.2907 13.0626 10.6107 12.4653 10.824C13.1373 11.08 13.6493 11.4533 14.0013 11.944C14.3639 12.424 14.5453 13.0107 14.5453 13.704C14.5453 14.4507 14.3586 15.096 13.9852 15.64C13.6119 16.1733 13.0999 16.5787 12.4493 16.856C11.8093 17.1333 11.0786 17.272 10.2573 17.272C9.43592 17.272 8.69992 17.1333 8.04925 16.856C7.40925 16.5787 6.90258 16.1733 6.52925 15.64C6.16658 15.096 5.98525 14.4507 5.98525 13.704C5.98525 13.0107 6.16125 12.424 6.51325 11.944C6.87592 11.4533 7.39325 11.08 8.06525 10.824C7.46792 10.6107 7.01458 10.2853 6.70525 9.848C6.40658 9.41067 6.25725 8.888 6.25725 8.28ZM8.48125 8.648C8.48125 9.16 8.64125 9.55467 8.96125 9.832C9.28125 10.1093 9.71325 10.248 10.2573 10.248C10.8119 10.248 11.2493 10.1093 11.5693 9.832C11.8893 9.55467 12.0493 9.16 12.0493 8.648C12.0493 8.136 11.8839 7.74133 11.5533 7.464C11.2333 7.176 10.8013 7.032 10.2573 7.032C9.72392 7.032 9.29192 7.176 8.96125 7.464C8.64125 7.74133 8.48125 8.136 8.48125 8.648ZM8.17725 13.576C8.17725 14.1413 8.36392 14.5893 8.73725 14.92C9.11058 15.2507 9.61725 15.416 10.2573 15.416C10.8973 15.416 11.4039 15.2507 11.7773 14.92C12.1613 14.5893 12.3533 14.1413 12.3533 13.576C12.3533 13 12.1559 12.5627 11.7613 12.264C11.3773 11.9547 10.8759 11.8 10.2573 11.8C9.64925 11.8 9.14792 11.9547 8.75325 12.264C8.36925 12.5627 8.17725 13 8.17725 13.576Z" fill="#0E9594"/>
<path d="M31.5306 13.4694C31.6005 13.539 31.656 13.6218 31.6939 13.713C31.7317 13.8042 31.7512 13.9019 31.7512 14.0006C31.7512 14.0993 31.7317 14.1971 31.6939 14.2882C31.656 14.3794 31.6005 14.4622 31.5306 14.5319L28.5306 17.5319C28.4609 17.6018 28.3781 17.6573 28.287 17.6951C28.1958 17.733 28.0981 17.7524 27.9993 17.7524C27.9006 17.7524 27.8029 17.733 27.7117 17.6951C27.6206 17.6573 27.5378 17.6018 27.4681 17.5319L24.4681 14.5319C24.3272 14.391 24.248 14.1999 24.248 14.0006C24.248 13.8013 24.3272 13.6103 24.4681 13.4694C24.609 13.3285 24.8001 13.2493 24.9993 13.2493C25.1986 13.2493 25.3897 13.3285 25.5306 13.4694L28 15.9375L30.4693 13.4675C30.5391 13.3979 30.6219 13.3427 30.7131 13.3051C30.8042 13.2675 30.9018 13.2483 31.0004 13.2485C31.0989 13.2486 31.1965 13.2682 31.2875 13.3061C31.3784 13.344 31.4611 13.3995 31.5306 13.4694ZM25.5306 8.53186L28 6.06248L30.4693 8.53248C30.6102 8.67338 30.8013 8.75253 31.0006 8.75253C31.1999 8.75253 31.391 8.67338 31.5318 8.53248C31.6727 8.39158 31.7519 8.20049 31.7519 8.00123C31.7519 7.80197 31.6727 7.61088 31.5318 7.46998L28.5318 4.46998C28.4622 4.40006 28.3794 4.34458 28.2882 4.30673C28.197 4.26888 28.0993 4.24939 28.0006 4.24939C27.9019 4.24939 27.8041 4.26888 27.713 4.30673C27.6218 4.34458 27.539 4.40006 27.4693 4.46998L24.4693 7.46998C24.3285 7.61088 24.2493 7.80197 24.2493 8.00123C24.2493 8.20049 24.3285 8.39158 24.4693 8.53248C24.6102 8.67338 24.8013 8.75253 25.0006 8.75253C25.1999 8.75253 25.391 8.67338 25.5318 8.53248L25.5306 8.53186Z" fill="#0E9594"/>
</g>
<defs>
<clipPath id="clip0_695_5143">
<rect width="36" height="22" fill="white"/>
</clipPath>
</defs>
</svg>
