<svg width="32" height="32" viewBox="0 0 32 32" fill="none" xmlns="http://www.w3.org/2000/svg">
<path d="M10.6208 19.9311L10.6207 19.9311C10.5149 19.8813 10.4199 19.8111 10.3411 19.7246C10.2624 19.6381 10.2014 19.5369 10.1618 19.4268C10.1222 19.3168 10.1046 19.2 10.1101 19.0831C10.1157 18.9662 10.1441 18.8516 10.194 18.7458L10.1516 18.7258L10.194 18.7458L15.194 8.12077L15.194 8.12075C15.2659 7.96775 15.3799 7.83837 15.5226 7.74775C15.6654 7.65713 15.8309 7.60901 16 7.60901C16.1691 7.60901 16.3346 7.65713 16.4774 7.74775C16.6201 7.83837 16.7341 7.96775 16.806 8.12075L16.806 8.12077L21.806 18.7458C21.9066 18.9595 21.9182 19.2045 21.8381 19.4268C21.7581 19.6491 21.593 19.8305 21.3793 19.9311C21.1655 20.0316 20.9205 20.0432 20.6982 19.9632C20.476 19.8831 20.2946 19.7181 20.194 19.5043L18.9768 16.9176L18.9641 16.8907H18.9344H13.0656H13.0359L13.0232 16.9176L11.8084 19.5043L11.8083 19.5043C11.7586 19.6105 11.6883 19.7058 11.6016 19.7847C11.5149 19.8636 11.4135 19.9247 11.3032 19.9643C11.1929 20.004 11.0758 20.0214 10.9587 20.0157C10.8416 20.01 10.7268 19.9813 10.6208 19.9311ZM16.0424 10.6816L16 10.5915L15.9576 10.6816L13.9052 15.0426L13.8738 15.1094H13.9477H18.0523H18.1262L18.0948 15.0426L16.0424 10.6816ZM23.7656 22.875C23.7656 23.1112 23.6718 23.3378 23.5048 23.5048C23.3377 23.6718 23.1112 23.7657 22.875 23.7657H9.125C8.88879 23.7657 8.66226 23.6718 8.49523 23.5048C8.32821 23.3378 8.23438 23.1112 8.23438 22.875C8.23438 22.6388 8.32821 22.4123 8.49523 22.2453C8.66226 22.0782 8.88879 21.9844 9.125 21.9844H22.875C23.1112 21.9844 23.3377 22.0782 23.5048 22.2453C23.6718 22.4123 23.7656 22.6388 23.7656 22.875Z" fill="#0E9594" stroke="#0E9594" stroke-width="0.09375"/>
</svg>
