<svg width="32" height="32" viewBox="0 0 32 32" fill="none" xmlns="http://www.w3.org/2000/svg">
<path d="M25.726 15.7281C25.8135 15.641 25.883 15.5374 25.9303 15.4234C25.9777 15.3094 26.0021 15.1871 26.0021 15.0636C26.0021 14.9402 25.9777 14.8179 25.9303 14.7039C25.883 14.5898 25.8135 14.4863 25.726 14.3992C25.6389 14.3118 25.5354 14.2424 25.4214 14.1951C25.3075 14.1478 25.1853 14.1234 25.0619 14.1234C24.9385 14.1234 24.8164 14.1478 24.7024 14.1951C24.5885 14.2424 24.485 14.3118 24.3979 14.3992L25.726 15.7281ZM25.726 15.7281L22.1049 19.3484L25.726 15.7281ZM25.6928 14.4323L25.6929 14.4324C25.7761 14.5152 25.842 14.6135 25.8871 14.7219C25.9321 14.8302 25.9552 14.9463 25.9552 15.0636C25.9552 15.1809 25.9321 15.2971 25.8871 15.4054C25.842 15.5137 25.7761 15.6121 25.6929 15.6949L25.6929 15.6949L22.0718 19.3153L22.0717 19.3154C21.9313 19.4565 21.7644 19.5685 21.5805 19.6447C21.3966 19.7209 21.1994 19.7599 21.0004 19.7593C20.8303 19.7586 20.6614 19.7297 20.5008 19.6737L20.473 19.664L20.4522 19.6848L18.9468 21.1903C18.9468 21.1903 18.9468 21.1903 18.9468 21.1903C18.6625 21.4744 18.2771 21.634 17.8752 21.634C17.4733 21.634 17.0879 21.4744 16.8037 21.1903C16.8037 21.1903 16.8037 21.1903 16.8037 21.1903L16.6584 21.0449L16.6252 21.0118L16.5921 21.0449L14.1304 23.5043L14.1303 23.5043C14.0476 23.5872 13.9494 23.6529 13.8413 23.6977C13.7332 23.7425 13.6173 23.7656 13.5002 23.7656H13.5002C13.4046 23.7657 13.3097 23.7502 13.2191 23.7196L13.2189 23.7196L7.59394 21.8446L7.59391 21.8445C7.44983 21.7966 7.32039 21.7127 7.21789 21.6006C7.1154 21.4886 7.04324 21.3522 7.00829 21.2045C6.97334 21.0567 6.97675 20.9024 7.01819 20.7564C7.05964 20.6103 7.13774 20.4772 7.24508 20.3698L11.5802 16.0331L11.6131 16.0002L11.5805 15.9671L11.4375 15.8218L11.4373 15.8215C11.1531 15.5373 10.9935 15.1519 10.9935 14.75C10.9935 14.3481 11.1531 13.9626 11.4373 13.6784L12.9435 12.1722L12.9643 12.1514L12.9546 12.1236C12.8607 11.8547 12.8444 11.5648 12.9077 11.287C12.9709 11.0093 13.1112 10.7551 13.3123 10.5534L16.9334 6.93077C17.1007 6.76344 17.3276 6.66943 17.5643 6.66943C17.8009 6.66943 18.0279 6.76344 18.1952 6.93077C18.3625 7.0981 18.4565 7.32504 18.4565 7.56168C18.4565 7.79832 18.3625 8.02527 18.1952 8.1926L14.7952 11.5918L14.762 11.625L14.7952 11.6581L20.9671 17.83L21.0002 17.8631L21.0334 17.83L24.431 14.4323L24.4311 14.4323C24.5138 14.3492 24.6121 14.2834 24.7204 14.2384C24.8286 14.1935 24.9447 14.1703 25.0619 14.1703C25.1791 14.1703 25.2952 14.1935 25.4035 14.2384C25.5117 14.2834 25.61 14.3492 25.6928 14.4323ZM16.6252 21.0781L16.5921 21.1112L14.1635 23.5375C14.0764 23.6246 13.973 23.6938 13.8592 23.741C13.7454 23.7882 13.6234 23.8125 13.5002 23.8125C13.3995 23.8126 13.2995 23.7962 13.2041 23.764L7.57912 21.889C7.42745 21.8386 7.2912 21.7502 7.18331 21.6323C7.07542 21.5143 6.99947 21.3708 6.96267 21.2152C6.92588 21.0597 6.92947 20.8973 6.9731 20.7436C7.01672 20.5898 7.09894 20.4497 7.21193 20.3367L11.5471 16L11.4041 15.8547C11.1112 15.5616 10.9466 15.1643 10.9466 14.75C10.9466 14.3356 11.1112 13.9383 11.4041 13.6453L16.6252 21.0781ZM13.2323 21.8468L13.2598 21.8559L13.2803 21.8354L15.3303 19.7831L15.3634 19.7499L15.3302 19.7168L12.9084 17.2949L12.8752 17.2618L12.8421 17.2949L9.57724 20.5574L9.52356 20.6111L9.59555 20.6351L13.2323 21.8468ZM17.8421 19.705L17.8752 19.7381L17.9084 19.705L19.0802 18.5331L19.1134 18.5L19.0802 18.4668L14.1584 13.5449L14.1252 13.5118L14.0921 13.5449L12.9202 14.7168L12.8871 14.7499L12.9201 14.783L13.5053 15.3705L13.5054 15.3706L17.8421 19.705Z" fill="#0E9594" stroke="#0E9594" stroke-width="0.09375"/>
</svg>
