<svg width="32" height="32" viewBox="0 0 32 32" fill="none" xmlns="http://www.w3.org/2000/svg">
<path d="M21.9844 10.0625V10.0156H21.9375H10.0625H10.0156V10.0625V21.9156V22.0288L10.0956 21.9488L18.366 13.6785C18.366 13.6785 18.366 13.6785 18.366 13.6785C18.6502 13.3943 19.0356 13.2347 19.4375 13.2347C19.8394 13.2347 20.2248 13.3943 20.509 13.6785C20.509 13.6785 20.509 13.6785 20.509 13.6785L21.9044 15.0738L21.9844 15.1538V15.0406V10.0625ZM12.659 21.9044L12.579 21.9844H12.6922H21.9375H21.9844V21.9375V17.6922V17.6728L21.9706 17.659L19.4706 15.159L19.4375 15.1259L19.4044 15.159L12.659 21.9044ZM9.75 8.23438H22.25C22.652 8.23438 23.0375 8.39406 23.3217 8.67829C23.6059 8.96253 23.7656 9.34803 23.7656 9.75V22.25C23.7656 22.652 23.6059 23.0375 23.3217 23.3217C23.0375 23.6059 22.652 23.7656 22.25 23.7656H9.75C9.34803 23.7656 8.96253 23.6059 8.67829 23.3217C8.39406 23.0375 8.23438 22.652 8.23438 22.25V9.75C8.23438 9.34803 8.39406 8.96253 8.67829 8.67829C8.96253 8.39406 9.34803 8.23438 9.75 8.23438ZM11.9844 13.5C11.9844 13.2002 12.0733 12.9072 12.2398 12.658C12.4063 12.4087 12.6431 12.2145 12.92 12.0997C13.1969 11.985 13.5017 11.955 13.7957 12.0135C14.0897 12.072 14.3597 12.2163 14.5717 12.4283C14.7837 12.6403 14.928 12.9103 14.9865 13.2043C15.045 13.4983 15.015 13.8031 14.9003 14.08C14.7855 14.3569 14.5913 14.5937 14.342 14.7602C14.0928 14.9267 13.7998 15.0156 13.5 15.0156C13.098 15.0156 12.7125 14.8559 12.4283 14.5717C12.1441 14.2875 11.9844 13.902 11.9844 13.5Z" fill="#0E9594" stroke="#0E9594" stroke-width="0.09375"/>
</svg>
