<svg width="32" height="32" viewBox="0 0 32 32" fill="none" xmlns="http://www.w3.org/2000/svg">
<path d="M18.5508 11.2656H18.517L18.5063 11.2977L15.3813 20.6727L15.3607 20.7344H15.4258H17.25C17.4862 20.7344 17.7127 20.8282 17.8798 20.9952C18.0468 21.1623 18.1406 21.3888 18.1406 21.625C18.1406 21.8612 18.0468 22.0877 17.8798 22.2548C17.7127 22.4218 17.4862 22.5156 17.25 22.5156H11C10.7638 22.5156 10.5373 22.4218 10.3702 22.2548C10.2032 22.0877 10.1094 21.8612 10.1094 21.625C10.1094 21.3888 10.2032 21.1623 10.3702 20.9952C10.5373 20.8282 10.7638 20.7344 11 20.7344H13.4492H13.483L13.4937 20.7023L16.6187 11.3273L16.6393 11.2656H16.5742H14.75C14.5138 11.2656 14.2873 11.1718 14.1202 11.0048C13.9532 10.8377 13.8594 10.6112 13.8594 10.375C13.8594 10.1388 13.9532 9.91226 14.1202 9.74523C14.2873 9.57821 14.5138 9.48438 14.75 9.48438H21C21.2362 9.48438 21.4627 9.57821 21.6298 9.74523C21.7968 9.91226 21.8906 10.1388 21.8906 10.375C21.8906 10.6112 21.7968 10.8377 21.6298 11.0048C21.4627 11.1718 21.2362 11.2656 21 11.2656H18.5508Z" fill="#0E9594" stroke="#0E9594" stroke-width="0.09375"/>
</svg>
