<svg width="32" height="32" viewBox="0 0 32 32" fill="none" xmlns="http://www.w3.org/2000/svg">
<path d="M12.4951 18.2078L12.4951 18.2076C12.4558 17.9248 12.3597 17.6528 12.2126 17.4081C12.0655 17.1634 11.8704 16.951 11.639 16.7836L11.639 16.7836C11.1774 16.4486 10.6041 16.305 10.0391 16.3828C9.47412 16.4606 8.96111 16.7539 8.60731 17.2011C8.47178 17.3753 8.3643 17.5696 8.28878 17.777C8.21156 17.9981 8.22449 18.2406 8.32477 18.4522C8.4251 18.6639 8.60477 18.8275 8.82488 18.9077C9.04499 18.9878 9.28781 18.978 9.50074 18.8804C9.71368 18.7828 9.87958 18.6052 9.96251 18.3861L9.96282 18.3853L9.96283 18.3853C9.97576 18.353 9.99331 18.3227 10.0149 18.2954L10.0155 18.2947L10.0155 18.2947C10.0837 18.2122 10.1808 18.1588 10.287 18.1454C10.393 18.132 10.5001 18.1595 10.5866 18.2223M12.4951 18.2078L8.41188 21.7175L10.6522 18.7218L10.6525 18.7214L10.662 18.709C10.69 18.674 10.7107 18.6338 10.7227 18.5906C10.7347 18.5472 10.7378 18.5019 10.7317 18.4573L10.7317 18.457C10.7249 18.4099 10.7085 18.3647 10.6834 18.3243C10.6585 18.284 10.6255 18.2493 10.5866 18.2223M12.4951 18.2078C12.5353 18.4862 12.5191 18.7698 12.4475 19.0418C12.376 19.3138 12.2505 19.5686 12.0786 19.7912L12.0782 19.7918L10.9626 21.2848L10.9066 21.3597M12.4951 18.2078L10.9066 21.3597M10.5866 18.2223C10.5864 18.2222 10.5863 18.2221 10.5861 18.2219L10.5595 18.2605L10.5871 18.2226C10.5869 18.2225 10.5868 18.2224 10.5866 18.2223ZM10.9066 21.3597H11.0001M10.9066 21.3597H11.0001M11.0001 21.3597H11.6251C11.8613 21.3597 12.0878 21.4536 12.2549 21.6206C12.4219 21.7876 12.5157 22.0141 12.5157 22.2504C12.5157 22.4866 12.4219 22.7131 12.2549 22.8801C12.0878 23.0471 11.8613 23.141 11.6251 23.141H9.12512C9.12511 23.141 9.12511 23.141 9.1251 23.141C8.9599 23.1409 8.79797 23.0949 8.65742 23.0081C8.51686 22.9212 8.40323 22.797 8.32922 22.6493C8.25521 22.5016 8.22375 22.3362 8.23835 22.1717C8.25294 22.0071 8.31302 21.8499 8.41186 21.7175L11.0001 21.3597ZM9.48448 10.6308V10.5663L9.42309 10.5863C9.21129 10.6552 8.98133 10.6423 8.77857 10.5501C8.57581 10.4579 8.41496 10.293 8.32776 10.0881C8.24055 9.88311 8.23332 9.65291 8.30748 9.44287C8.38158 9.23302 8.53156 9.05852 8.72787 8.95372L9.97729 8.32901C9.97729 8.32901 9.9773 8.32901 9.97731 8.329C10.1131 8.26124 10.2639 8.22927 10.4154 8.23614C10.567 8.24301 10.7143 8.28849 10.8434 8.36826C10.9724 8.44803 11.079 8.55946 11.1529 8.69196C11.2268 8.82446 11.2656 8.97365 11.2657 9.12538V14.1254C11.2657 14.3616 11.1719 14.5881 11.0049 14.7551C10.8378 14.9221 10.6113 15.016 10.3751 15.016C10.1389 15.016 9.91236 14.9221 9.74533 14.7551C9.57831 14.5881 9.48448 14.3616 9.48448 14.1254V10.6339V10.6308ZM23.7657 16.0004C23.7657 16.2366 23.6719 16.4631 23.5049 16.6301C23.3378 16.7971 23.1113 16.891 22.8751 16.891H15.0626C14.8264 16.891 14.5999 16.7971 14.4328 16.6301C14.2658 16.4631 14.172 16.2366 14.172 16.0004C14.172 15.7641 14.2658 15.5376 14.4328 15.3706C14.5999 15.2036 14.8264 15.1097 15.0626 15.1097H22.8751C23.1113 15.1097 23.3378 15.2036 23.5049 15.3706C23.6719 15.5376 23.7657 15.7641 23.7657 16.0004ZM22.8751 11.891H15.0626C14.8264 11.891 14.5999 11.7971 14.4328 11.6301C14.2658 11.4631 14.172 11.2366 14.172 11.0004C14.172 10.7641 14.2658 10.5376 14.4328 10.3706C14.5999 10.2036 14.8264 10.1097 15.0626 10.1097H22.8751C23.1113 10.1097 23.3378 10.2036 23.5049 10.3706C23.6719 10.5376 23.7657 10.7641 23.7657 11.0004C23.7657 11.2366 23.6719 11.4631 23.5049 11.6301C23.3378 11.7971 23.1113 11.891 22.8751 11.891ZM15.0626 20.1097H22.8751C23.1113 20.1097 23.3378 20.2036 23.5049 20.3706C23.6719 20.5376 23.7657 20.7641 23.7657 21.0004C23.7657 21.2366 23.6719 21.4631 23.5049 21.6301C23.3378 21.7971 23.1113 21.891 22.8751 21.891H15.0626C14.8264 21.891 14.5999 21.7971 14.4328 21.6301C14.2658 21.4631 14.172 21.2366 14.172 21.0004C14.172 20.7641 14.2658 20.5376 14.4328 20.3706C14.5999 20.2036 14.8264 20.1097 15.0626 20.1097Z" fill="#0E9594" stroke="#0E9594" stroke-width="0.09375"/>
</svg>
