<svg width="32" height="32" viewBox="0 0 32 32" fill="none" xmlns="http://www.w3.org/2000/svg">
<path d="M20.5203 16.8906H20.4176L20.4849 16.9682C21.003 17.5654 21.2812 18.3336 21.2656 19.1241L21.2656 19.1241V19.125C21.2656 20.2362 20.665 21.3066 19.611 22.0595L19.611 22.0595C18.6379 22.7562 17.3541 23.1406 16 23.1406C14.6459 23.1406 13.3621 22.7562 12.389 22.0595L12.389 22.0595C11.335 21.3066 10.7344 20.2362 10.7344 19.125C10.7344 18.8888 10.8282 18.6623 10.9952 18.4952C11.1623 18.3282 11.3888 18.2344 11.625 18.2344C11.8612 18.2344 12.0877 18.3282 12.2548 18.4952C12.4218 18.6623 12.5156 18.8888 12.5156 19.125C12.5156 19.7401 12.9235 20.2997 13.5574 20.703C14.1922 21.107 15.0605 21.3594 16 21.3594C16.9395 21.3594 17.8078 21.107 18.4426 20.703C19.0765 20.2997 19.4844 19.7401 19.4844 19.125C19.4844 18.6119 19.2959 18.2044 18.849 17.8498C18.4055 17.498 17.7078 17.1983 16.6893 16.8926L16.6899 16.8906H16.6758H9.125C8.88879 16.8906 8.66226 16.7968 8.49523 16.6298C8.32821 16.4627 8.23438 16.2362 8.23438 16C8.23438 15.7638 8.32821 15.5373 8.49523 15.3702C8.66226 15.2032 8.88879 15.1094 9.125 15.1094H22.875C23.1112 15.1094 23.3377 15.2032 23.5048 15.3702C23.6718 15.5373 23.7656 15.7638 23.7656 16C23.7656 16.2362 23.6718 16.4627 23.5048 16.6298C23.3377 16.7968 23.1112 16.8906 22.875 16.8906H20.5203ZM12.4977 13.5048C12.3307 13.6718 12.1042 13.7656 11.868 13.7656C11.6318 13.7656 11.4052 13.6718 11.2382 13.5048C11.0712 13.3377 10.9773 13.1112 10.9773 12.875C10.9773 10.5936 13.125 8.85938 16 8.85938C18.0376 8.85938 19.7285 9.73599 20.5271 11.195C20.6271 11.4002 20.6444 11.6361 20.5755 11.8538C20.5065 12.0718 20.3563 12.2549 20.1559 12.3652C19.9556 12.4755 19.7205 12.5045 19.4993 12.4462C19.2786 12.388 19.0886 12.2472 18.9686 12.053C18.4798 11.1637 17.3657 10.6406 16 10.6406C15.0819 10.6406 14.2736 10.8769 13.6934 11.2738C13.1128 11.671 12.7586 12.231 12.7586 12.875C12.7586 13.1112 12.6648 13.3377 12.4977 13.5048Z" fill="#0E9594" stroke="#0E9594" stroke-width="0.09375"/>
</svg>
