<svg width="32" height="32" viewBox="0 0 32 32" fill="none" xmlns="http://www.w3.org/2000/svg">
<path d="M21.8906 23.5C21.8906 23.7362 21.7968 23.9627 21.6298 24.1298C21.4627 24.2968 21.2362 24.3906 21 24.3906H11C10.7638 24.3906 10.5373 24.2968 10.3702 24.1298C10.2032 23.9627 10.1094 23.7362 10.1094 23.5C10.1094 23.2638 10.2032 23.0373 10.3702 22.8702C10.5373 22.7032 10.7638 22.6094 11 22.6094H21C21.2362 22.6094 21.4627 22.7032 21.6298 22.8702C21.7968 23.0373 21.8906 23.2638 21.8906 23.5ZM19.7218 19.7218C18.7346 20.7089 17.3961 21.2642 16 21.2656C14.6039 21.2642 13.2654 20.7089 12.2782 19.7218C11.291 18.7346 10.7358 17.3961 10.7344 16V10.375C10.7344 10.1388 10.8282 9.91226 10.9952 9.74523C11.1623 9.57821 11.3888 9.48438 11.625 9.48438C11.8612 9.48438 12.0877 9.57821 12.2548 9.74523C12.4218 9.91226 12.5156 10.1388 12.5156 10.375V16C12.5156 16.9241 12.8827 17.8104 13.5362 18.4638C14.1896 19.1173 15.0759 19.4844 16 19.4844C16.9241 19.4844 17.8104 19.1173 18.4638 18.4638C19.1173 17.8104 19.4844 16.9241 19.4844 16V10.375C19.4844 10.1388 19.5782 9.91226 19.7452 9.74523C19.9123 9.57821 20.1388 9.48438 20.375 9.48438C20.6112 9.48438 20.8377 9.57821 21.0048 9.74523C21.1718 9.91226 21.2656 10.1388 21.2656 10.375V16C21.2642 17.3961 20.709 18.7346 19.7218 19.7218Z" fill="#0E9594" stroke="#0E9594" stroke-width="0.09375"/>
</svg>
