<svg width="32" height="32" viewBox="0 0 32 32" fill="none" xmlns="http://www.w3.org/2000/svg">
<path d="M23.2344 16.9375V16.8906H23.1875H20.0625C19.8263 16.8906 19.5998 16.7968 19.4327 16.6298C19.2657 16.4627 19.1719 16.2362 19.1719 16C19.1719 15.7638 19.2657 15.5373 19.4327 15.3702C19.5998 15.2032 19.8263 15.1094 20.0625 15.1094H23.5C23.902 15.1094 24.2875 15.2691 24.5717 15.5533C24.8559 15.8375 25.0156 16.223 25.0156 16.625V21.625C25.0156 22.027 24.8559 22.4125 24.5717 22.6967C24.2875 22.981 23.902 23.1406 23.5 23.1406H8.5C8.09803 23.1406 7.71253 22.981 7.42829 22.6967C7.14406 22.4125 6.98438 22.027 6.98438 21.625V16.625C6.98438 16.223 7.14406 15.8375 7.42829 15.5533C7.71253 15.2691 8.09803 15.1094 8.5 15.1094H11.9375C12.1737 15.1094 12.4002 15.2032 12.5673 15.3702C12.7343 15.5373 12.8281 15.7638 12.8281 16C12.8281 16.2362 12.7343 16.4627 12.5673 16.6298C12.4002 16.7968 12.1737 16.8906 11.9375 16.8906H8.8125H8.76562V16.9375V21.3125V21.3594H8.8125H23.1875H23.2344V21.3125V16.9375ZM12.8801 12.2551L12.8529 12.2823L12.8541 12.284C12.6898 12.4347 12.4746 12.5188 12.2508 12.5188C12.0141 12.5188 11.7872 12.4248 11.6199 12.2575C11.4525 12.0902 11.3585 11.8632 11.3585 11.6266C11.3585 11.5094 11.3816 11.3934 11.4264 11.2851C11.4713 11.1769 11.537 11.0785 11.6199 10.9957L15.3699 7.24565L15.3699 7.24559C15.4527 7.16256 15.551 7.09669 15.6592 7.05173C15.7675 7.00678 15.8836 6.98364 16.0008 6.98364C16.118 6.98364 16.2341 7.00678 16.3423 7.05173C16.4506 7.09669 16.5489 7.16256 16.6316 7.2456L16.6317 7.24565L20.3817 10.9957C20.4646 11.0785 20.5303 11.1769 20.5751 11.2851C20.62 11.3934 20.643 11.5094 20.643 11.6266C20.643 11.7437 20.62 11.8598 20.5751 11.968C20.5303 12.0763 20.4646 12.1746 20.3817 12.2575C20.2988 12.3403 20.2005 12.4061 20.0922 12.4509C19.984 12.4957 19.868 12.5188 19.7508 12.5188C19.6336 12.5188 19.5176 12.4957 19.4093 12.4509C19.3011 12.4061 19.2027 12.3403 19.1199 12.2575C19.1199 12.2575 19.1199 12.2575 19.1199 12.2575L16.9707 10.1075L16.8906 10.0274V10.1406V16C16.8906 16.2362 16.7968 16.4627 16.6298 16.6298C16.4627 16.7968 16.2362 16.8906 16 16.8906C15.7638 16.8906 15.5373 16.7968 15.3702 16.6298C15.2032 16.4627 15.1094 16.2362 15.1094 16V10.1406V10.0275L15.0294 10.1075L12.8801 12.2551ZM20.6875 20.3281C20.4495 20.3281 20.2169 20.2576 20.0191 20.1254C19.8212 19.9932 19.667 19.8053 19.576 19.5854C19.4849 19.3656 19.4611 19.1237 19.5075 18.8903C19.5539 18.6569 19.6685 18.4425 19.8368 18.2743C20.005 18.106 20.2194 17.9914 20.4528 17.945C20.6862 17.8986 20.9281 17.9224 21.1479 18.0135C21.3678 18.1045 21.5557 18.2587 21.6879 18.4566C21.8201 18.6544 21.8906 18.8871 21.8906 19.125C21.8906 19.4441 21.7639 19.7501 21.5382 19.9757C21.3126 20.2014 21.0066 20.3281 20.6875 20.3281Z" fill="#0E9594" stroke="#0E9594" stroke-width="0.09375"/>
</svg>
